PathFileType	4	(X/Y/Z)	45_2_67_p1_0-255_filt_butterworth.trc
DataRate	CameraRate	NumFrames	NumMarkers	Units	OrigDataRate	OrigDataStartFrame	OrigNumFrames
55.0	55.0	5	27	m	55.0	31	255
Frame#	Time	RHip			RKnee			RAnkle			RBigToe			RSmallToe			RHeel			LHip			LKnee			LAnkle			LBigToe			LSmallToe			LHeel			Neck			Head			Nose			RShoulder			RElbow			RWrist			RThumb			RIndex			RPinky			LShoulder			LElbow			LWrist			LThumb			LIndex			LPinky			
		X1	Y1	Z1	X2	Y2	Z2	X3	Y3	Z3	X4	Y4	Z4	X5	Y5	Z5	X6	Y6	Z6	X7	Y7	Z7	X8	Y8	Z8	X9	Y9	Z9	X10	Y10	Z10	X11	Y11	Z11	X12	Y12	Z12	X13	Y13	Z13	X14	Y14	Z14	X15	Y15	Z15	X16	Y16	Z16	X17	Y17	Z17	X18	Y18	Z18	X19	Y19	Z19	X20	Y20	Z20	X21	Y21	Z21	X22	Y22	Z22	X23	Y23	Z23	X24	Y24	Z24	X25	Y25	Z25	X26	Y26	Z26	X27	Y27	Z27	
31	0.5636363636363636	0.5822426161231027	0.4511734786317249	0.9767539535813317	0.5864340527022796	0.6024789196685433	1.3323792739491411	0.59364543653405	0.7660989249435795	1.6720202660619639	0.5946188420291155	0.6904976482340811	1.7562642679894762	0.6537093034876459	0.7101185384721608	1.7516769636305427	0.570277777042042	0.8803007628341699	1.7219044251292077	0.36262995156391825	0.44241126720157653	0.9896234034229184	0.3910255515221042	0.6347228904701193	1.3619233323394817	0.40768782261498043	0.8237664271934033	1.7106124702900773	0.43114063934983354	0.6646811259155703	1.7617491345091942	0.3790596011222202	0.7180877158856371	1.763990817850975	0.43335900234676483	0.8825266757559284	1.7461709089011517	0.43025204254494165	0.2599824819549708	0.44275630830841334	0.41083653767081213	0.12338792671400281	0.23542388456987406	0.4253742906287654	0.0844906000416081	0.3684284472661072	0.5985466098784079	0.24713743046044032	0.5256438236985544	0.6369961001363977	0.29696003296032103	0.7580332457777718	0.5125795576619341	0.24558805050002974	0.9572759693098919	0.46200282534443304	0.33849011823857367	1.0633784589925508	0.4542076113549127	0.3436786449054451	1.0690343212821605	0.4681741063543105	0.2974217518044779	1.0642690604586904	0.28064964497914907	0.2407330758121078	0.540217294375319	0.2843849381185891	0.3299047272754435	0.7695187489116435	0.4269708344476519	0.259624811180047	0.9721187245885764	0.5160755602811433	0.29755329404057806	1.0394126615365504	0.5077049736762347	0.30303094633272365	1.0595056557741112	0.43422104814219664	0.29845012845672425	1.0677950586052023
32	0.5818181818181818	0.5823890657346347	0.45165784187810354	0.9779665501187982	0.5875197718158722	0.6033149210580933	1.332302796943899	0.5936335515901843	0.7661063148375054	1.6720186654247522	0.5928923881113303	0.6893718741369398	1.7562190647392737	0.6519556188802405	0.7087806899174165	1.7516946207912076	0.5702243759649397	0.8803368316294673	1.7218596282324867	0.36237144288533873	0.4426239698635233	0.9899334826438193	0.3900392292699657	0.6342136476465672	1.3618038977644435	0.4076643689386594	0.8237729713492579	1.710601116860869	0.4311366281671295	0.6649137586815858	1.761749306404756	0.37900659549745275	0.7182443294694146	1.7640314306148446	0.43194024408859066	0.8875057071418344	1.7473925921853337	0.4302367171186924	0.2600048314843092	0.44273692121590585	0.410853118120254	0.1235287455560392	0.23534117205214236	0.424357369801464	0.08412597612943332	0.36856253500749997	0.5985751198312008	0.24731700388431338	0.5259058527812825	0.6396019750200427	0.30176777713664166	0.7581470410989664	0.5128403588869797	0.24626227731877995	0.9581299141141724	0.45597339166884615	0.3231264922190207	1.062902082179696	0.45146293333439047	0.33256583628485614	1.0691626415337743	0.47095252149095396	0.2942195997041619	1.0646814751811486	0.2806447333488443	0.24079592858573695	0.5402378996738344	0.28442190530878264	0.3298142506232311	0.769820626862672	0.42694164941860085	0.25762567560742644	0.9724816159416911	0.5161265749335756	0.2969787925866522	1.0394035348869786	0.5076590610314428	0.3030013579535377	1.0596909319248313	0.4331439619225554	0.2938632585625022	1.0667213544153125
33	0.6	0.5825352377477521	0.4522104494939667	0.9789157989615602	0.5892321416155626	0.6037752870831581	1.3321604250140622	0.5936317052218179	0.7661242380325897	1.672016082521497	0.5916176643956346	0.6884448006039716	1.756216439934943	0.6505737753443094	0.7077580097304038	1.7517281650654928	0.5701596878248366	0.8803728638216891	1.7218295187695052	0.36231464000486924	0.4430181342111185	0.9906127564128719	0.38886783607409536	0.6336700105963079	1.3616977277887627	0.407642244080472	0.8237706613284749	1.710661217126029	0.43113603874322093	0.6648015673778952	1.7617519455690027	0.3789568592951873	0.7184520176646687	1.7640730086411418	0.4299643046607083	0.8943196446415308	1.749116712643927	0.4302282616583994	0.26001842257114643	0.44271808705934856	0.41090571303766704	0.12400249582659281	0.23527437729945097	0.42409659684888223	0.08358818379518818	0.36873054926376003	0.5987318728973707	0.24786357694226058	0.5267231344155198	0.6417470538554724	0.30726272800930854	0.7575934498308322	0.5131598943356542	0.24718111281002736	0.9592180812772564	0.44726116551738004	0.2996238919090436	1.0620703425111375	0.44718915726344016	0.31597146263062764	1.069220332320719	0.4734940237018257	0.29458452252178197	1.0647751751873615	0.2806755226479204	0.24082327888529595	0.540263344635413	0.28455706688086735	0.33010378377288196	0.77070712959019	0.427332011477402	0.25774096409165215	0.9732103836107086	0.5152686321353984	0.2981049311328445	1.0389865569131498	0.5061982060416547	0.30564152294374614	1.0604446565681538	0.4327483863171619	0.29057747230418424	1.0663059985583994
34	0.6181818181818182	0.582659275067779	0.45264288472825653	0.979167144279405	0.5905628344183895	0.6039344131914723	1.3320790886364906	0.5936371906591621	0.7661385232548732	1.672025500872107	0.591603407194673	0.688168392302982	1.7562441070605412	0.6500177481148148	0.7076368718336226	1.7517673441492152	0.570107810715024	0.880366739190232	1.7218705693259027	0.3631743514183793	0.443763894476633	0.9912605145454617	0.38896304305110135	0.6333117311347433	1.3616191737640568	0.40763110332084374	0.823756964343046	1.7107173797327728	0.4311426436611586	0.6645205089559956	1.7617731566725767	0.3789495173873486	0.7185166828220065	1.7640996105171567	0.42808653090093074	0.8990115259081557	1.7503951928481225	0.4302262797447808	0.2600395288177348	0.44271064116742076	0.4109562221449349	0.12460307564526933	0.2354846172207654	0.4241775066286119	0.08323707584295428	0.368872853413794	0.598982099522291	0.24865021559312353	0.5278640378546194	0.6430027276311345	0.3109478525257088	0.7570657214643013	0.5137682625938014	0.24806384568832446	0.9599405441532904	0.4381821049089973	0.27814664224895996	1.0614522023030712	0.44235214115029575	0.2986773517083659	1.069256578179022	0.4752571182229206	0.29656459784039657	1.065447062269848	0.2807374892297162	0.24074878914324982	0.540295880184113	0.28433505719485386	0.3316270698951821	0.771900687870562	0.4271343249273557	0.2600554383900336	0.9741029117982015	0.5112793874015187	0.3037865820171538	1.0386538084862404	0.5015958056258454	0.3129472719731115	1.0619790060411844	0.4336716618527679	0.28979781199238713	1.0661525348984786
35	0.6363636363636364	0.5827372936137473	0.4527799658578681	0.9786595421395272	0.59100247637215	0.6040725074241882	1.3321189271420966	0.5936380454216612	0.7661433038282405	1.6720614357072925	0.5929168214756426	0.6886000625552857	1.7562832604362753	0.6499551665059106	0.7080247362916573	1.751798483501865	0.5700251324767335	0.8802987081767796	1.7218623015976833	0.3657868707281249	0.44508708610868053	0.9915496204128821	0.3910004193702874	0.6332447387920128	1.3623585591435723	0.4076221559465955	0.8237277148655764	1.7107399656777365	0.4311508133060038	0.6643333867431921	1.7618138202143487	0.378986232305879	0.7183728666544578	1.7641038418940658	0.4263478108434617	0.8997743840951655	1.7508351568488794	0.4302244724362343	0.2600863243260092	0.4427162351042218	0.41084153020977615	0.12429508740182768	0.2365166991648753	0.42428252916568193	0.08313469201691744	0.36895514527435297	0.5991940153102174	0.24929235635160443	0.5287505176326681	0.6435440224733029	0.31241296746371433	0.7571827472868581	0.5151341295744929	0.24902027864484325	0.9603493129402851	0.4319663654458484	0.2667463356450095	1.0610533972086864	0.43845919735923966	0.28606961664851704	1.0693192391842627	0.4758961078909286	0.29989184026328997	1.0671860801256914	0.28075374383637536	0.24046656641458583	0.5403592834011891	0.2831447464688743	0.33514542440736844	0.7726468959825604	0.4246693067480154	0.264144335436316	0.9750712661185907	0.5004394198777894	0.3131451235841877	1.0388319026177764	0.4917827230689398	0.32062414787556986	1.0639751707093914	0.43555595787898654	0.2908856113791723	1.0659687991056492
